{"title":"Season Of The Witch DVDRip XviD-ARROW -- CBTorrents.com","uid":6351911,"size":744974377,"categoryP":"video","categoryS":"movies","magnet":"?xt=urn:btih:2187852c574d8915dbe14ddcb06c49f436fe1550&amp;dn=Season+Of+The+Witch+DVDRip+XviD-ARROW+--+CBTorrents.com&amp;tr=udp%3A%2F%2Ftracker.openbittorrent.com%3A80&amp;tr=udp%3A%2F%2Fopen.demonii.com%3A1337&amp;tr=udp%3A%2F%2Ftracker.coppersurfer.tk%3A6969&amp;tr=udp%3A%2F%2Fexodus.desync.com%3A6969","seeders":0,"leechers":1,"uploader":"ErSSP","files":3,"time":1304027883,"description":"================= Visit CBTorrents.com For More Exclusives ======================\n\nRemember to signup on CBTorrents.com Its free and give you access to more Exclusives like this.\n\nFormat                           : AVI\nFormat/Info                      : Audio Video Interleave\nFile size                        : 699 MiB\nDuration                         : 1h 34mn\nOverall bit rate                 : 1 032 Kbps\n\nVideo\nFormat                           : MPEG-4 Visual\nFormat profile                   : Advanced Simple@L5\nFormat settings, BVOP            : 2\nFormat settings, QPel            : No\nFormat settings, GMC             : No warppoints\nFormat settings, Matrix          : Default (H.263)\nMuxing mode                      : Packed bitstream\nCodec ID                         : XVID\nCodec ID/Hint                    : XviD\nDuration                         : 1h 34mn\nBit rate                         : 876 Kbps\nWidth                            : 640 pixels\nHeight                           : 352 pixels\nDisplay aspect ratio             : 16:9\nFrame rate                       : 23.976 fps\nColor space                      : YUV\nChroma subsampling               : 4:2:0\nBit depth                        : 8 bits\nScan type                        : Progressive\nCompression mode                 : Lossy\nBits/(Pixel*Frame)               : 0.162\nStream size                      : 593 MiB (85%)\nWriting library                  : XviD 1.2.1 (UTC 2008-12-04)\n\nAudio\nID                               : 1\nFormat                           : MPEG Audio\nFormat version                   : Version 1\nFormat profile                   : Layer 3\nMode                             : Joint stereo\nMode extension                   : MS Stereo\nCodec ID                         : 55\nCodec ID/Hint                    : MP3\nDuration                         : 1h 34mn\nBit rate mode                    : Variable\nBit rate                         : 143 Kbps\nMinimum bit rate                 : 32.0 Kbps\nChannel(s)                       : 2 channels\nSampling rate                    : 48.0 KHz\nCompression mode                 : Lossy\nStream size                      : 96.6 MiB (14%)\nAlignment                        : Aligned on interleaves\nInterleave, duration             : 24 ms (0.58 video frame)\nInterleave, preload duration     : 129 ms\nWriting library                  : LAME3.98r\n\n\nScreens: &lt;a href=&quot;\nhttp://www.bollywoodreleases.info/images/46102871516164721142.jpg[/IMG]&quot; rel=&quot;nofollow&quot; target=&quot;_NEW&quot;&gt;\nhttp://www.bollywoodreleases.info/images/46102871516164721142.jpg[/IMG]&lt;/a&gt;\n\nSample included in torrent\n\nCredit to original Ripper\n\n\n\nRemember to signup on CBTorrents.com Its free and give you access to more Exclusives like this.\n\n================= Visit CBTorrents.com For More Exclusives ======================\n","torrent":{"xt":"urn:btih:2187852c574d8915dbe14ddcb06c49f436fe1550","amp;dn":"Season+Of+The+Witch+DVDRip+XviD-ARROW+--+CBTorrents.com","amp;tr":["udp%3A%2F%2Ftracker.openbittorrent.com%3A80","udp%3A%2F%2Fopen.demonii.com%3A1337","udp%3A%2F%2Ftracker.coppersurfer.tk%3A6969","udp%3A%2F%2Fexodus.desync.com%3A6969"],"infoHash":"2187852c574d8915dbe14ddcb06c49f436fe1550","infoHashBuffer":{"type":"Buffer","data":[33,135,133,44,87,77,137,21,219,225,77,220,176,108,73,244,54,254,21,80]},"announce":[],"urlList":[]}}